<svg xmlns="http://www.w3.org/2000/svg" xmlns:xlink="http://www.w3.org/1999/xlink" width="500" zoomAndPan="magnify" viewBox="0 0 375 374.999991" height="500" preserveAspectRatio="xMidYMid meet" version="1.0"><path fill="#009fe3" d="M 245.160156 300.996094 C 245.148438 301.007812 245.132812 301.027344 245.109375 301.054688 C 245.132812 301.027344 245.152344 301.007812 245.160156 300.996094 Z M 245.160156 300.996094 " fill-opacity="1" fill-rule="nonzero"/><path fill="#009fe3" d="M 245.308594 296.769531 C 245.300781 296.789062 245.304688 296.816406 245.304688 296.839844 C 245.300781 296.8125 245.300781 296.789062 245.308594 296.769531 Z M 245.308594 296.769531 " fill-opacity="1" fill-rule="nonzero"/><path fill="#009fe3" d="M 245.402344 297.046875 C 245.371094 296.988281 245.34375 296.933594 245.308594 296.875 C 245.371094 297.203125 245.808594 297.78125 245.402344 297.046875 Z M 245.402344 297.046875 " fill-opacity="1" fill-rule="nonzero"/><path fill="#009fe3" d="M 239.75 294.804688 C 239.441406 294.980469 239.140625 295.175781 238.832031 295.339844 C 238.773438 295.390625 238.710938 295.441406 238.65625 295.496094 C 238.441406 295.695312 238.25 295.917969 238.054688 296.132812 C 237.976562 296.265625 237.878906 296.390625 237.800781 296.523438 C 237.734375 296.636719 237.671875 296.753906 237.609375 296.867188 C 237.589844 297.117188 237.386719 297.546875 237.292969 297.8125 C 237.261719 297.78125 237.222656 297.851562 237.210938 298.085938 L 237.210938 298.234375 C 237.191406 298.355469 237.171875 298.472656 237.136719 298.53125 C 237.167969 298.484375 237.191406 298.4375 237.210938 298.386719 C 237.210938 298.691406 237.210938 298.996094 237.210938 299.300781 C 237.253906 299.46875 237.285156 299.636719 237.332031 299.804688 C 237.359375 299.910156 237.390625 300.011719 237.425781 300.117188 C 237.394531 300.078125 237.359375 300.035156 237.316406 299.992188 C 237.359375 300.035156 237.398438 300.09375 237.4375 300.152344 C 237.460938 300.230469 237.488281 300.304688 237.507812 300.386719 C 237.574219 300.628906 237.65625 300.6875 237.667969 300.621094 C 237.734375 300.773438 237.800781 300.921875 237.875 301.042969 C 237.914062 301.105469 238.035156 301.257812 238.117188 301.382812 C 238.367188 301.640625 238.609375 301.894531 238.871094 302.144531 C 238.878906 302.148438 238.882812 302.152344 238.886719 302.15625 C 238.921875 302.175781 238.960938 302.199219 239.011719 302.222656 C 239.277344 302.378906 239.554688 302.523438 239.824219 302.671875 C 239.960938 302.714844 240.09375 302.769531 240.226562 302.808594 C 240.386719 302.855469 240.550781 302.890625 240.710938 302.929688 C 241.109375 302.914062 241.542969 302.996094 241.933594 302.976562 C 241.96875 302.976562 242 302.972656 242.035156 302.972656 C 242.054688 302.96875 242.074219 302.964844 242.097656 302.957031 C 242.460938 302.878906 242.804688 302.742188 243.164062 302.652344 C 243.28125 302.585938 243.40625 302.523438 243.527344 302.453125 C 243.636719 302.394531 243.742188 302.324219 243.851562 302.253906 C 244.070312 302.035156 244.386719 301.832031 244.578125 301.632812 C 244.628906 301.578125 244.675781 301.527344 244.726562 301.472656 C 244.78125 301.238281 245.09375 300.816406 245.308594 300.511719 C 245.300781 300.554688 245.300781 300.605469 245.308594 300.65625 C 245.308594 300.605469 245.339844 300.507812 245.378906 300.40625 C 245.417969 300.351562 245.449219 300.300781 245.472656 300.257812 C 245.59375 300.042969 245.578125 299.976562 245.523438 300.011719 C 245.597656 299.730469 245.636719 299.421875 245.710938 299.136719 C 245.714844 298.996094 245.722656 298.859375 245.726562 298.71875 C 245.726562 298.65625 245.714844 298.574219 245.703125 298.484375 C 245.714844 298.5 245.726562 298.503906 245.734375 298.503906 C 245.738281 298.445312 245.742188 298.382812 245.746094 298.320312 C 245.742188 298.292969 245.734375 298.261719 245.726562 298.226562 C 245.710938 298.167969 245.683594 298.089844 245.652344 298.003906 C 245.652344 297.914062 245.660156 297.835938 245.675781 297.769531 C 245.65625 297.832031 245.640625 297.890625 245.632812 297.949219 C 245.507812 297.601562 245.3125 297.125 245.308594 296.859375 C 245.246094 296.742188 245.183594 296.632812 245.117188 296.519531 C 245.105469 296.5 245.09375 296.476562 245.074219 296.453125 C 245.152344 296.492188 245.160156 296.4375 244.976562 296.238281 C 244.902344 296.164062 244.832031 296.089844 244.757812 296.011719 C 244.757812 296.011719 244.753906 296.007812 244.753906 296.007812 C 244.738281 295.972656 244.722656 295.929688 244.714844 295.894531 C 244.71875 295.925781 244.726562 295.957031 244.730469 295.988281 C 244.511719 295.761719 244.292969 295.539062 244.066406 295.324219 C 243.925781 295.242188 243.792969 295.136719 243.65625 295.058594 C 243.542969 294.988281 243.425781 294.929688 243.3125 294.867188 C 242.984375 294.855469 242.347656 294.570312 242.019531 294.46875 C 241.886719 294.460938 241.75 294.449219 241.617188 294.449219 C 241.457031 294.445312 241.300781 294.453125 241.144531 294.457031 C 241.152344 294.457031 241.160156 294.453125 241.167969 294.449219 L 241.152344 294.449219 C 241.140625 294.453125 241.128906 294.457031 241.117188 294.460938 C 241.019531 294.460938 240.921875 294.464844 240.828125 294.464844 C 240.535156 294.46875 240.484375 294.542969 240.589844 294.570312 C 240.40625 294.597656 240.222656 294.625 240.085938 294.667969 C 240.019531 294.695312 239.875 294.753906 239.75 294.804688 Z M 239.75 294.804688 " fill-opacity="1" fill-rule="nonzero"/><path fill="#009fe3" d="M 293.429688 262.179688 C 293.398438 262.125 293.367188 262.066406 293.335938 262.011719 C 293.398438 262.339844 293.839844 262.917969 293.429688 262.179688 Z M 293.429688 262.179688 " fill-opacity="1" fill-rule="nonzero"/><path fill="#009fe3" d="M 287.773438 259.941406 C 287.472656 260.121094 287.164062 260.3125 286.859375 260.476562 C 286.800781 260.527344 286.734375 260.578125 286.679688 260.636719 C 286.46875 260.835938 286.277344 261.054688 286.082031 261.273438 C 286 261.402344 285.902344 261.527344 285.824219 261.664062 C 285.757812 261.773438 285.695312 261.890625 285.636719 262.007812 C 285.613281 262.253906 285.410156 262.6875 285.320312 262.949219 C 285.289062 262.917969 285.246094 262.992188 285.238281 263.226562 C 285.234375 263.277344 285.238281 263.324219 285.234375 263.375 C 285.21875 263.496094 285.195312 263.613281 285.160156 263.671875 C 285.191406 263.625 285.21875 263.578125 285.234375 263.527344 C 285.234375 263.832031 285.234375 264.136719 285.238281 264.4375 C 285.277344 264.609375 285.3125 264.777344 285.355469 264.945312 C 285.386719 265.050781 285.417969 265.152344 285.453125 265.253906 C 285.417969 265.21875 285.382812 265.171875 285.34375 265.132812 C 285.386719 265.175781 285.421875 265.230469 285.460938 265.289062 C 285.460938 265.289062 285.460938 265.289062 285.460938 265.292969 C 285.464844 265.292969 285.464844 265.296875 285.464844 265.296875 C 285.484375 265.375 285.511719 265.449219 285.53125 265.527344 C 285.597656 265.769531 285.679688 265.828125 285.695312 265.757812 C 285.761719 265.914062 285.828125 266.066406 285.902344 266.183594 C 285.9375 266.246094 286.058594 266.398438 286.144531 266.523438 C 286.386719 266.78125 286.636719 267.035156 286.898438 267.285156 L 286.914062 267.296875 C 286.949219 267.316406 286.988281 267.335938 287.03125 267.363281 C 287.300781 267.519531 287.578125 267.664062 287.847656 267.8125 C 287.980469 267.855469 288.117188 267.910156 288.25 267.945312 C 288.410156 267.992188 288.574219 268.027344 288.734375 268.070312 C 289.132812 268.054688 289.566406 268.136719 289.957031 268.117188 C 289.992188 268.117188 290.027344 268.113281 290.058594 268.113281 C 290.078125 268.109375 290.097656 268.105469 290.121094 268.097656 C 290.484375 268.019531 290.828125 267.882812 291.183594 267.789062 C 291.308594 267.726562 291.429688 267.664062 291.550781 267.59375 C 291.660156 267.535156 291.765625 267.464844 291.875 267.394531 C 292.089844 267.175781 292.410156 266.972656 292.601562 266.773438 C 292.652344 266.71875 292.699219 266.667969 292.75 266.613281 C 292.804688 266.378906 293.117188 265.953125 293.328125 265.652344 C 293.328125 265.699219 293.324219 265.746094 293.332031 265.796875 C 293.332031 265.746094 293.363281 265.648438 293.402344 265.546875 C 293.441406 265.492188 293.472656 265.441406 293.492188 265.398438 C 293.617188 265.179688 293.601562 265.117188 293.546875 265.15625 C 293.621094 264.871094 293.65625 264.566406 293.734375 264.28125 C 293.738281 264.140625 293.746094 264 293.75 263.859375 C 293.75 263.796875 293.738281 263.714844 293.726562 263.628906 C 293.738281 263.640625 293.75 263.648438 293.757812 263.648438 C 293.757812 263.585938 293.765625 263.523438 293.769531 263.464844 C 293.765625 263.433594 293.757812 263.40625 293.75 263.367188 C 293.734375 263.308594 293.707031 263.230469 293.675781 263.144531 C 293.671875 263.078125 293.675781 263.011719 293.6875 262.960938 C 293.671875 263.007812 293.664062 263.046875 293.65625 263.089844 C 293.527344 262.746094 293.339844 262.269531 293.328125 262.003906 C 293.269531 261.886719 293.207031 261.777344 293.140625 261.664062 C 293.128906 261.644531 293.113281 261.621094 293.09375 261.597656 C 293.09375 261.597656 293.097656 261.597656 293.097656 261.597656 C 293.171875 261.636719 293.183594 261.578125 293.003906 261.382812 C 292.929688 261.304688 292.855469 261.230469 292.78125 261.15625 C 292.757812 261.113281 292.742188 261.074219 292.738281 261.039062 C 292.742188 261.070312 292.746094 261.101562 292.757812 261.128906 C 292.539062 260.90625 292.316406 260.683594 292.089844 260.46875 C 291.949219 260.386719 291.816406 260.28125 291.675781 260.199219 C 291.566406 260.132812 291.449219 260.070312 291.332031 260.007812 C 291.007812 259.996094 290.371094 259.714844 290.046875 259.613281 C 289.910156 259.601562 289.777344 259.59375 289.644531 259.589844 C 289.484375 259.589844 289.328125 259.597656 289.171875 259.597656 C 289.210938 259.582031 289.253906 259.558594 289.296875 259.53125 C 289.25 259.5625 289.199219 259.582031 289.144531 259.601562 C 289.144531 259.601562 289.140625 259.601562 289.140625 259.601562 C 289.042969 259.601562 288.949219 259.609375 288.851562 259.609375 C 288.558594 259.609375 288.507812 259.6875 288.613281 259.714844 C 288.429688 259.742188 288.25 259.765625 288.109375 259.808594 C 288.046875 259.832031 287.902344 259.890625 287.773438 259.941406 Z M 287.773438 259.941406 " fill-opacity="1" fill-rule="nonzero"/><path fill="#009fe3" d="M 245.402344 71.511719 C 245.371094 71.457031 245.34375 71.402344 245.308594 71.34375 C 245.371094 71.667969 245.808594 72.246094 245.402344 71.511719 Z M 245.402344 71.511719 " fill-opacity="1" fill-rule="nonzero"/><path fill="#009fe3" d="M 239.75 69.269531 C 239.441406 69.449219 239.140625 69.644531 238.832031 69.808594 C 238.773438 69.859375 238.710938 69.910156 238.65625 69.964844 C 238.441406 70.164062 238.25 70.386719 238.054688 70.601562 C 237.976562 70.734375 237.878906 70.859375 237.800781 70.992188 C 237.734375 71.105469 237.671875 71.21875 237.609375 71.335938 C 237.589844 71.585938 237.386719 72.011719 237.292969 72.28125 C 237.261719 72.246094 237.222656 72.316406 237.210938 72.554688 L 237.210938 72.699219 C 237.191406 72.820312 237.171875 72.941406 237.136719 73 C 237.167969 72.949219 237.191406 72.902344 237.210938 72.855469 C 237.210938 73.15625 237.210938 73.460938 237.210938 73.765625 C 237.253906 73.933594 237.285156 74.105469 237.332031 74.273438 C 237.359375 74.378906 237.390625 74.480469 237.425781 74.585938 C 237.394531 74.542969 237.359375 74.503906 237.316406 74.460938 C 237.359375 74.503906 237.398438 74.5625 237.4375 74.621094 C 237.460938 74.695312 237.488281 74.777344 237.507812 74.855469 C 237.574219 75.097656 237.65625 75.15625 237.667969 75.089844 C 237.734375 75.242188 237.800781 75.390625 237.875 75.515625 C 237.914062 75.574219 238.035156 75.730469 238.117188 75.851562 C 238.367188 76.109375 238.609375 76.367188 238.871094 76.609375 C 238.878906 76.617188 238.882812 76.621094 238.886719 76.625 C 238.921875 76.644531 238.960938 76.667969 239.011719 76.695312 C 239.277344 76.84375 239.554688 76.988281 239.824219 77.140625 C 239.960938 77.183594 240.09375 77.238281 240.226562 77.277344 C 240.386719 77.320312 240.550781 77.359375 240.710938 77.394531 C 241.109375 77.382812 241.542969 77.464844 241.933594 77.445312 C 241.96875 77.441406 242 77.441406 242.035156 77.4375 C 242.054688 77.433594 242.074219 77.429688 242.097656 77.425781 C 242.460938 77.347656 242.804688 77.210938 243.164062 77.121094 C 243.28125 77.054688 243.40625 76.996094 243.527344 76.925781 C 243.636719 76.859375 243.742188 76.792969 243.851562 76.726562 C 244.070312 76.503906 244.386719 76.304688 244.578125 76.101562 C 244.628906 76.050781 244.675781 75.996094 244.726562 75.945312 C 244.78125 75.707031 245.09375 75.285156 245.308594 74.980469 C 245.300781 75.027344 245.300781 75.078125 245.308594 75.128906 C 245.308594 75.074219 245.339844 74.976562 245.378906 74.878906 C 245.417969 74.820312 245.449219 74.769531 245.472656 74.730469 C 245.59375 74.511719 245.578125 74.445312 245.523438 74.480469 C 245.597656 74.203125 245.636719 73.894531 245.710938 73.609375 C 245.714844 73.46875 245.722656 73.328125 245.726562 73.1875 C 245.726562 73.125 245.714844 73.042969 245.703125 72.953125 C 245.714844 72.96875 245.726562 72.976562 245.734375 72.976562 C 245.738281 72.914062 245.742188 72.851562 245.746094 72.789062 C 245.742188 72.761719 245.734375 72.730469 245.726562 72.695312 C 245.710938 72.636719 245.683594 72.558594 245.652344 72.472656 C 245.652344 72.382812 245.660156 72.300781 245.675781 72.242188 C 245.65625 72.300781 245.640625 72.359375 245.632812 72.417969 C 245.507812 72.070312 245.3125 71.59375 245.308594 71.328125 C 245.246094 71.214844 245.183594 71.101562 245.117188 70.988281 C 245.105469 70.96875 245.09375 70.945312 245.074219 70.921875 C 245.152344 70.960938 245.160156 70.902344 244.976562 70.710938 C 244.90625 70.632812 244.832031 70.558594 244.757812 70.484375 C 244.757812 70.484375 244.757812 70.480469 244.757812 70.480469 C 244.757812 70.480469 244.753906 70.480469 244.753906 70.480469 C 244.738281 70.4375 244.722656 70.398438 244.714844 70.367188 C 244.71875 70.398438 244.726562 70.429688 244.730469 70.457031 C 244.511719 70.230469 244.292969 70.011719 244.066406 69.796875 C 243.925781 69.710938 243.792969 69.609375 243.65625 69.527344 C 243.542969 69.460938 243.425781 69.398438 243.3125 69.335938 C 242.984375 69.324219 242.347656 69.039062 242.019531 68.941406 C 241.886719 68.929688 241.75 68.921875 241.617188 68.917969 C 241.457031 68.917969 241.300781 68.921875 241.144531 68.925781 C 241.1875 68.90625 241.226562 68.886719 241.269531 68.859375 C 241.226562 68.886719 241.171875 68.910156 241.117188 68.925781 C 241.019531 68.933594 240.921875 68.9375 240.828125 68.9375 C 240.535156 68.9375 240.484375 69.015625 240.589844 69.039062 C 240.40625 69.070312 240.222656 69.09375 240.085938 69.136719 C 240.019531 69.160156 239.875 69.222656 239.75 69.269531 Z M 239.75 69.269531 " fill-opacity="1" fill-rule="nonzero"/><path fill="#009fe3" d="M 293.429688 109.253906 C 293.398438 109.195312 293.367188 109.136719 293.335938 109.082031 C 293.398438 109.40625 293.839844 109.984375 293.429688 109.253906 Z M 293.429688 109.253906 " fill-opacity="1" fill-rule="nonzero"/><path fill="#009fe3" d="M 287.773438 107.007812 C 287.472656 107.1875 287.164062 107.382812 286.859375 107.542969 C 286.800781 107.59375 286.734375 107.644531 286.679688 107.699219 C 286.46875 107.902344 286.277344 108.121094 286.082031 108.335938 C 286 108.46875 285.902344 108.597656 285.824219 108.726562 C 285.757812 108.84375 285.695312 108.957031 285.636719 109.070312 C 285.613281 109.324219 285.410156 109.75 285.320312 110.015625 C 285.289062 109.984375 285.246094 110.058594 285.238281 110.289062 C 285.234375 110.339844 285.238281 110.386719 285.234375 110.4375 C 285.21875 110.558594 285.195312 110.679688 285.160156 110.734375 C 285.191406 110.683594 285.21875 110.636719 285.234375 110.59375 C 285.234375 110.894531 285.234375 111.199219 285.238281 111.503906 C 285.277344 111.671875 285.3125 111.839844 285.355469 112.007812 C 285.386719 112.113281 285.417969 112.21875 285.453125 112.320312 C 285.417969 112.28125 285.382812 112.238281 285.34375 112.195312 C 285.386719 112.242188 285.421875 112.292969 285.460938 112.351562 C 285.460938 112.355469 285.460938 112.355469 285.460938 112.359375 C 285.464844 112.359375 285.464844 112.363281 285.464844 112.363281 C 285.488281 112.4375 285.511719 112.515625 285.53125 112.589844 C 285.597656 112.832031 285.679688 112.890625 285.695312 112.824219 C 285.761719 112.976562 285.828125 113.128906 285.902344 113.25 C 285.9375 113.308594 286.058594 113.464844 286.144531 113.585938 C 286.386719 113.847656 286.636719 114.101562 286.898438 114.347656 C 286.902344 114.351562 286.90625 114.355469 286.914062 114.359375 C 286.949219 114.378906 286.988281 114.402344 287.03125 114.429688 C 287.300781 114.582031 287.578125 114.726562 287.847656 114.875 C 287.980469 114.917969 288.117188 114.972656 288.25 115.015625 C 288.410156 115.058594 288.574219 115.097656 288.734375 115.132812 C 289.132812 115.121094 289.566406 115.199219 289.957031 115.183594 C 289.992188 115.179688 290.027344 115.179688 290.058594 115.175781 C 290.078125 115.171875 290.097656 115.167969 290.121094 115.164062 C 290.484375 115.082031 290.828125 114.945312 291.183594 114.855469 C 291.308594 114.792969 291.429688 114.730469 291.550781 114.660156 C 291.660156 114.597656 291.765625 114.527344 291.875 114.460938 C 292.089844 114.242188 292.410156 114.039062 292.601562 113.835938 C 292.652344 113.785156 292.699219 113.730469 292.75 113.675781 C 292.804688 113.441406 293.117188 113.019531 293.328125 112.714844 C 293.328125 112.761719 293.324219 112.8125 293.332031 112.863281 C 293.332031 112.8125 293.363281 112.710938 293.402344 112.613281 C 293.441406 112.554688 293.472656 112.503906 293.492188 112.464844 C 293.617188 112.246094 293.601562 112.179688 293.546875 112.214844 C 293.621094 111.933594 293.65625 111.625 293.734375 111.34375 C 293.738281 111.203125 293.746094 111.0625 293.75 110.921875 C 293.75 110.859375 293.738281 110.78125 293.726562 110.6875 C 293.738281 110.703125 293.75 110.710938 293.757812 110.710938 C 293.757812 110.648438 293.765625 110.585938 293.769531 110.527344 C 293.765625 110.5 293.757812 110.464844 293.75 110.429688 C 293.734375 110.371094 293.707031 110.296875 293.675781 110.207031 C 293.671875 110.140625 293.675781 110.078125 293.6875 110.023438 C 293.671875 110.070312 293.664062 110.113281 293.65625 110.15625 C 293.527344 109.808594 293.339844 109.332031 293.328125 109.066406 C 293.269531 108.953125 293.207031 108.835938 293.140625 108.722656 C 293.128906 108.707031 293.113281 108.683594 293.09375 108.660156 C 293.171875 108.695312 293.183594 108.640625 293 108.445312 C 292.925781 108.367188 292.851562 108.292969 292.777344 108.21875 C 292.777344 108.21875 292.777344 108.214844 292.777344 108.214844 C 292.753906 108.175781 292.738281 108.136719 292.738281 108.101562 C 292.742188 108.132812 292.746094 108.164062 292.753906 108.191406 C 292.535156 107.964844 292.3125 107.746094 292.085938 107.527344 C 291.949219 107.445312 291.816406 107.34375 291.675781 107.261719 C 291.5625 107.195312 291.449219 107.136719 291.332031 107.074219 C 291.007812 107.058594 290.367188 106.777344 290.042969 106.675781 C 289.910156 106.667969 289.773438 106.660156 289.640625 106.65625 C 289.484375 106.65625 289.324219 106.65625 289.167969 106.664062 C 289.210938 106.644531 289.25 106.621094 289.296875 106.597656 C 289.25 106.625 289.195312 106.644531 289.140625 106.664062 C 289.042969 106.671875 288.945312 106.671875 288.851562 106.671875 C 288.554688 106.671875 288.507812 106.75 288.613281 106.777344 C 288.429688 106.804688 288.246094 106.832031 288.105469 106.875 C 288.046875 106.898438 287.902344 106.960938 287.773438 107.007812 Z M 287.773438 107.007812 " fill-opacity="1" fill-rule="nonzero"/><path fill="#009fe3" d="M 372.039062 180.101562 C 370.1875 158.351562 355.679688 139.214844 334.765625 130.777344 C 341.757812 116.996094 341.097656 100.765625 332.867188 88.40625 C 323.132812 73.785156 307.144531 71.109375 304.4375 70.699219 C 308.117188 63.015625 307.410156 53.996094 302.542969 47.300781 C 296.949219 39.601562 286.777344 36.25 277.273438 39.082031 C 268.40625 17.527344 246.507812 5.421875 226.097656 9.359375 C 210.3125 12.40625 197.265625 24.699219 191.980469 40.976562 L 191.980469 112.316406 L 236.296875 112.316406 L 236.296875 86.765625 C 233.328125 85.664062 230.738281 83.617188 228.964844 80.726562 C 225.636719 75.308594 226.488281 68.429688 230.453125 63.636719 C 234.105469 59.21875 240.761719 57.386719 246.152344 59.371094 C 251.898438 61.496094 255.761719 66.632812 256.03125 72.757812 C 256.042969 72.902344 256.050781 73.046875 256.046875 73.1875 C 256.050781 73.371094 256.042969 73.550781 256.027344 73.726562 C 255.71875 79.460938 252.03125 84.90625 246.621094 86.878906 L 246.621094 117.488281 C 246.621094 120.285156 244.246094 122.652344 241.457031 122.652344 L 191.984375 122.652344 L 191.984375 157.246094 L 284.058594 157.246094 L 284.058594 124.402344 C 281.203125 123.277344 278.714844 121.269531 276.992188 118.464844 C 273.667969 113.046875 274.515625 106.167969 278.480469 101.371094 C 282.132812 96.953125 288.792969 95.125 294.179688 97.109375 C 299.925781 99.230469 303.785156 104.367188 304.058594 110.496094 C 304.070312 110.640625 304.078125 110.78125 304.074219 110.925781 C 304.074219 111.109375 304.066406 111.289062 304.050781 111.464844 C 303.738281 117.289062 299.941406 122.824219 294.382812 124.714844 L 294.382812 162.414062 C 294.382812 165.210938 292.007812 167.578125 289.21875 167.578125 L 191.980469 167.578125 L 191.980469 204.871094 L 289.21875 204.871094 C 292.015625 204.871094 294.382812 207.242188 294.382812 210.035156 L 294.382812 250.121094 C 300.015625 252.289062 303.789062 257.375 304.054688 263.425781 C 304.066406 263.570312 304.074219 263.714844 304.070312 263.859375 C 304.074219 264.042969 304.066406 264.222656 304.050781 264.398438 C 303.703125 270.835938 299.101562 276.921875 292.566406 278.117188 C 286.441406 279.242188 280.292969 276.78125 276.988281 271.398438 C 273.664062 265.980469 274.511719 259.101562 278.480469 254.304688 C 279.945312 252.527344 281.898438 251.171875 284.058594 250.3125 L 284.058594 215.203125 L 191.980469 215.203125 L 191.980469 249.257812 L 241.457031 249.257812 C 244.253906 249.257812 246.617188 251.628906 246.617188 254.421875 L 246.617188 285.089844 C 252.105469 287.3125 255.765625 292.332031 256.027344 298.292969 C 256.039062 298.433594 256.046875 298.578125 256.042969 298.722656 C 256.046875 298.910156 256.039062 299.085938 256.023438 299.261719 C 255.675781 305.703125 251.070312 311.785156 244.539062 312.984375 C 238.414062 314.109375 232.265625 311.648438 228.960938 306.261719 C 225.632812 300.84375 226.484375 293.964844 230.449219 289.171875 C 231.976562 287.324219 234.03125 285.929688 236.292969 285.078125 L 236.292969 259.589844 L 191.980469 259.589844 L 191.980469 333.148438 C 194.257812 337.808594 202.121094 352.332031 219.148438 359.066406 C 222.105469 360.234375 246.59375 369.921875 261.476562 355.273438 C 271.945312 344.964844 270.601562 329.554688 270.320312 326.816406 C 279.039062 332.550781 290.515625 331.722656 298.117188 324.917969 C 305.285156 318.507812 307.605469 308.039062 303.804688 298.992188 C 304.992188 298.765625 328.753906 293.839844 336.65625 271.800781 C 342.261719 256.175781 336.132812 242.445312 334.761719 239.546875 C 359.132812 229.492188 374.175781 205.183594 372.039062 180.101562 Z M 372.039062 180.101562 " fill-opacity="1" fill-rule="nonzero"/><path fill="#009fe3" d="M 129.597656 300.394531 C 129.628906 300.453125 129.65625 300.511719 129.6875 300.566406 C 129.628906 300.238281 129.1875 299.660156 129.597656 300.394531 Z M 129.597656 300.394531 " fill-opacity="1" fill-rule="nonzero"/><path fill="#009fe3" d="M 135.25 302.636719 C 135.554688 302.460938 135.859375 302.265625 136.167969 302.101562 C 136.226562 302.050781 136.285156 302 136.34375 301.945312 C 136.558594 301.746094 136.746094 301.527344 136.941406 301.308594 C 137.023438 301.175781 137.121094 301.050781 137.199219 300.917969 C 137.265625 300.804688 137.324219 300.6875 137.386719 300.574219 C 137.410156 300.324219 137.613281 299.894531 137.707031 299.632812 C 137.734375 299.664062 137.777344 299.589844 137.785156 299.351562 C 137.789062 299.308594 137.785156 299.261719 137.785156 299.210938 C 137.785156 299.210938 137.785156 299.207031 137.789062 299.207031 C 137.789062 299.203125 137.789062 299.199219 137.789062 299.199219 C 137.804688 299.09375 137.824219 298.992188 137.851562 298.929688 C 137.828125 298.972656 137.808594 299.011719 137.789062 299.050781 C 137.792969 298.746094 137.789062 298.445312 137.789062 298.136719 C 137.746094 297.96875 137.714844 297.800781 137.667969 297.632812 C 137.640625 297.527344 137.609375 297.425781 137.574219 297.320312 C 137.605469 297.363281 137.640625 297.402344 137.683594 297.445312 C 137.640625 297.398438 137.601562 297.347656 137.566406 297.289062 C 137.566406 297.285156 137.566406 297.285156 137.5625 297.285156 C 137.5625 297.28125 137.5625 297.28125 137.5625 297.28125 C 137.539062 297.203125 137.515625 297.128906 137.492188 297.050781 C 137.425781 296.808594 137.34375 296.75 137.332031 296.816406 C 137.265625 296.664062 137.199219 296.515625 137.125 296.390625 C 137.085938 296.332031 136.96875 296.179688 136.882812 296.054688 C 136.636719 295.796875 136.390625 295.542969 136.128906 295.296875 C 136.121094 295.289062 136.117188 295.285156 136.113281 295.28125 C 136.078125 295.261719 136.039062 295.238281 135.992188 295.214844 C 135.722656 295.0625 135.449219 294.917969 135.179688 294.765625 C 135.042969 294.722656 134.910156 294.667969 134.773438 294.628906 C 134.613281 294.582031 134.453125 294.546875 134.289062 294.511719 C 133.894531 294.523438 133.457031 294.445312 133.066406 294.460938 C 133.035156 294.460938 133 294.460938 132.96875 294.464844 C 132.949219 294.472656 132.925781 294.476562 132.902344 294.480469 C 132.542969 294.5625 132.195312 294.695312 131.839844 294.789062 C 131.71875 294.847656 131.597656 294.914062 131.472656 294.984375 C 131.363281 295.046875 131.257812 295.117188 131.152344 295.183594 C 130.9375 295.402344 130.617188 295.601562 130.421875 295.804688 C 130.371094 295.855469 130.324219 295.910156 130.277344 295.964844 C 130.21875 296.203125 129.90625 296.621094 129.695312 296.925781 C 129.699219 296.878906 129.703125 296.832031 129.695312 296.777344 C 129.695312 296.828125 129.664062 296.929688 129.625 297.03125 C 129.585938 297.089844 129.550781 297.140625 129.527344 297.179688 C 129.40625 297.398438 129.421875 297.464844 129.476562 297.425781 C 129.402344 297.707031 129.363281 298.015625 129.289062 298.300781 C 129.285156 298.441406 129.277344 298.582031 129.273438 298.722656 C 129.273438 298.78125 129.289062 298.863281 129.296875 298.953125 C 129.289062 298.9375 129.273438 298.933594 129.265625 298.929688 C 129.265625 298.992188 129.257812 299.054688 129.253906 299.117188 C 129.257812 299.144531 129.265625 299.175781 129.273438 299.210938 C 129.289062 299.269531 129.316406 299.347656 129.347656 299.433594 C 129.347656 299.433594 129.347656 299.4375 129.347656 299.4375 C 129.351562 299.503906 129.347656 299.566406 129.335938 299.621094 C 129.351562 299.574219 129.359375 299.53125 129.367188 299.488281 C 129.492188 299.835938 129.683594 300.3125 129.695312 300.578125 C 129.757812 300.691406 129.816406 300.804688 129.882812 300.921875 C 129.894531 300.9375 129.910156 300.960938 129.925781 300.984375 C 129.851562 300.949219 129.839844 301.003906 130.023438 301.199219 C 130.097656 301.277344 130.171875 301.351562 130.246094 301.429688 C 130.261719 301.460938 130.273438 301.488281 130.28125 301.515625 C 130.277344 301.492188 130.273438 301.472656 130.269531 301.453125 C 130.488281 301.679688 130.707031 301.898438 130.933594 302.117188 C 131.074219 302.199219 131.207031 302.300781 131.347656 302.382812 C 131.457031 302.449219 131.574219 302.511719 131.6875 302.570312 C 132.015625 302.585938 132.652344 302.867188 132.976562 302.972656 C 133.113281 302.976562 133.246094 302.988281 133.382812 302.988281 C 133.539062 302.992188 133.699219 302.988281 133.851562 302.980469 C 133.832031 302.988281 133.816406 303 133.800781 303.011719 C 133.828125 303.003906 133.855469 302.988281 133.882812 302.980469 C 133.980469 302.976562 134.074219 302.972656 134.171875 302.972656 C 134.464844 302.972656 134.515625 302.898438 134.410156 302.867188 C 134.59375 302.839844 134.773438 302.816406 134.914062 302.769531 C 134.980469 302.75 135.125 302.6875 135.25 302.636719 Z M 135.25 302.636719 " fill-opacity="1" fill-rule="nonzero"/><path fill="#009fe3" d="M 81.570312 265.53125 C 81.601562 265.589844 81.628906 265.644531 81.664062 265.699219 C 81.601562 265.375 81.160156 264.796875 81.570312 265.53125 Z M 81.570312 265.53125 " fill-opacity="1" fill-rule="nonzero"/><path fill="#009fe3" d="M 87.222656 267.773438 C 87.53125 267.59375 87.832031 267.398438 88.140625 267.234375 C 88.199219 267.1875 88.261719 267.136719 88.316406 267.082031 C 88.53125 266.878906 88.722656 266.660156 88.914062 266.445312 C 88.996094 266.3125 89.09375 266.183594 89.171875 266.054688 C 89.238281 265.9375 89.296875 265.824219 89.363281 265.707031 C 89.382812 265.457031 89.585938 265.03125 89.679688 264.765625 C 89.710938 264.796875 89.75 264.722656 89.757812 264.488281 C 89.761719 264.4375 89.761719 264.390625 89.761719 264.339844 C 89.777344 264.222656 89.800781 264.097656 89.835938 264.042969 C 89.804688 264.09375 89.78125 264.140625 89.761719 264.1875 C 89.761719 263.882812 89.761719 263.582031 89.761719 263.273438 C 89.71875 263.105469 89.6875 262.9375 89.640625 262.769531 C 89.613281 262.664062 89.582031 262.5625 89.546875 262.457031 C 89.578125 262.5 89.613281 262.539062 89.65625 262.585938 C 89.613281 262.539062 89.574219 262.480469 89.535156 262.421875 C 89.511719 262.34375 89.484375 262.265625 89.464844 262.1875 C 89.402344 261.945312 89.320312 261.886719 89.304688 261.953125 C 89.238281 261.800781 89.171875 261.652344 89.097656 261.527344 C 89.0625 261.46875 88.9375 261.3125 88.855469 261.191406 C 88.609375 260.933594 88.363281 260.679688 88.101562 260.433594 C 88.097656 260.425781 88.09375 260.421875 88.085938 260.417969 C 88.050781 260.398438 88.011719 260.375 87.964844 260.351562 C 87.699219 260.199219 87.421875 260.054688 87.152344 259.902344 C 87.015625 259.859375 86.882812 259.804688 86.746094 259.765625 C 86.585938 259.71875 86.421875 259.683594 86.261719 259.648438 C 85.867188 259.660156 85.429688 259.578125 85.039062 259.597656 C 85.003906 259.597656 84.972656 259.597656 84.941406 259.601562 C 84.917969 259.609375 84.898438 259.613281 84.875 259.617188 C 84.515625 259.699219 84.167969 259.832031 83.8125 259.925781 C 83.691406 259.984375 83.566406 260.050781 83.445312 260.117188 C 83.335938 260.183594 83.226562 260.25 83.125 260.316406 C 82.90625 260.539062 82.589844 260.738281 82.394531 260.941406 C 82.34375 260.992188 82.296875 261.042969 82.25 261.101562 C 82.191406 261.335938 81.878906 261.757812 81.667969 262.0625 C 81.671875 262.015625 81.671875 261.964844 81.664062 261.914062 C 81.664062 261.96875 81.632812 262.066406 81.59375 262.167969 C 81.558594 262.222656 81.527344 262.273438 81.503906 262.3125 C 81.378906 262.535156 81.394531 262.597656 81.453125 262.5625 C 81.378906 262.84375 81.335938 263.152344 81.261719 263.433594 C 81.257812 263.578125 81.25 263.714844 81.246094 263.855469 C 81.25 263.917969 81.261719 263.996094 81.269531 264.089844 C 81.257812 264.074219 81.25 264.066406 81.242188 264.066406 C 81.234375 264.128906 81.230469 264.191406 81.226562 264.25 C 81.230469 264.28125 81.238281 264.3125 81.246094 264.347656 C 81.261719 264.40625 81.292969 264.484375 81.320312 264.566406 C 81.324219 264.660156 81.316406 264.738281 81.296875 264.800781 C 81.316406 264.742188 81.332031 264.683594 81.34375 264.625 C 81.46875 264.96875 81.660156 265.449219 81.667969 265.710938 C 81.730469 265.828125 81.792969 265.941406 81.859375 266.054688 C 81.871094 266.074219 81.882812 266.097656 81.902344 266.121094 C 81.824219 266.082031 81.8125 266.140625 81.996094 266.332031 C 82.070312 266.414062 82.144531 266.488281 82.21875 266.5625 C 82.238281 266.605469 82.253906 266.644531 82.261719 266.679688 C 82.253906 266.648438 82.25 266.617188 82.246094 266.589844 C 82.460938 266.816406 82.683594 267.035156 82.910156 267.253906 C 83.050781 267.335938 83.179688 267.4375 83.320312 267.519531 C 83.433594 267.585938 83.550781 267.644531 83.664062 267.707031 C 83.992188 267.722656 84.628906 268.003906 84.957031 268.105469 C 85.089844 268.113281 85.222656 268.121094 85.359375 268.125 C 85.515625 268.125 85.671875 268.125 85.832031 268.117188 C 85.789062 268.136719 85.75 268.160156 85.703125 268.183594 C 85.75 268.15625 85.804688 268.132812 85.859375 268.117188 C 85.957031 268.109375 86.054688 268.109375 86.148438 268.109375 C 86.441406 268.109375 86.488281 268.03125 86.386719 268.003906 C 86.570312 267.972656 86.753906 267.949219 86.890625 267.90625 C 86.953125 267.882812 87.09375 267.824219 87.222656 267.773438 Z M 87.222656 267.773438 " fill-opacity="1" fill-rule="nonzero"/><path fill="#009fe3" d="M 129.597656 74.863281 C 129.628906 74.917969 129.65625 74.976562 129.6875 75.03125 C 129.628906 74.707031 129.1875 74.128906 129.597656 74.863281 Z M 129.597656 74.863281 " fill-opacity="1" fill-rule="nonzero"/><path fill="#009fe3" d="M 135.25 77.101562 C 135.554688 76.925781 135.859375 76.730469 136.167969 76.566406 C 136.226562 76.515625 136.285156 76.464844 136.34375 76.410156 C 136.558594 76.207031 136.746094 75.988281 136.941406 75.773438 C 137.023438 75.640625 137.121094 75.515625 137.199219 75.382812 C 137.265625 75.269531 137.324219 75.15625 137.386719 75.039062 C 137.410156 74.789062 137.613281 74.359375 137.707031 74.09375 C 137.734375 74.125 137.777344 74.054688 137.785156 73.820312 C 137.789062 73.773438 137.785156 73.722656 137.785156 73.679688 C 137.785156 73.675781 137.785156 73.671875 137.789062 73.671875 C 137.789062 73.671875 137.789062 73.667969 137.789062 73.667969 C 137.804688 73.546875 137.832031 73.429688 137.863281 73.375 C 137.835938 73.425781 137.808594 73.472656 137.789062 73.519531 C 137.792969 73.214844 137.789062 72.910156 137.789062 72.609375 C 137.746094 72.4375 137.714844 72.269531 137.667969 72.101562 C 137.640625 71.996094 137.609375 71.894531 137.574219 71.792969 C 137.605469 71.832031 137.640625 71.875 137.683594 71.917969 C 137.640625 71.871094 137.601562 71.8125 137.5625 71.757812 C 137.5625 71.757812 137.5625 71.757812 137.5625 71.753906 C 137.5625 71.753906 137.5625 71.753906 137.5625 71.75 C 137.539062 71.675781 137.515625 71.597656 137.492188 71.523438 C 137.425781 71.277344 137.34375 71.222656 137.332031 71.289062 C 137.265625 71.132812 137.199219 70.984375 137.125 70.863281 C 137.085938 70.800781 136.96875 70.648438 136.882812 70.523438 C 136.636719 70.265625 136.390625 70.011719 136.128906 69.765625 C 136.121094 69.757812 136.117188 69.757812 136.113281 69.75 C 136.078125 69.730469 136.039062 69.710938 135.992188 69.683594 C 135.722656 69.527344 135.449219 69.382812 135.179688 69.234375 C 135.042969 69.191406 134.910156 69.140625 134.773438 69.101562 C 134.613281 69.054688 134.453125 69.019531 134.289062 68.980469 C 133.894531 68.992188 133.457031 68.914062 133.066406 68.933594 C 133.035156 68.933594 133 68.933594 132.96875 68.933594 C 132.949219 68.941406 132.925781 68.945312 132.902344 68.949219 C 132.542969 69.027344 132.195312 69.164062 131.839844 69.257812 C 131.71875 69.320312 131.597656 69.382812 131.472656 69.449219 C 131.363281 69.511719 131.257812 69.582031 131.152344 69.648438 C 130.9375 69.871094 130.617188 70.070312 130.421875 70.273438 C 130.371094 70.324219 130.324219 70.378906 130.277344 70.433594 C 130.21875 70.667969 129.90625 71.089844 129.695312 71.394531 C 129.699219 71.34375 129.703125 71.296875 129.695312 71.246094 C 129.695312 71.296875 129.664062 71.394531 129.625 71.5 C 129.585938 71.554688 129.554688 71.605469 129.53125 71.644531 C 129.410156 71.867188 129.425781 71.925781 129.480469 71.890625 C 129.40625 72.171875 129.363281 72.480469 129.289062 72.765625 C 129.285156 72.90625 129.277344 73.046875 129.277344 73.1875 C 129.277344 73.25 129.289062 73.332031 129.300781 73.417969 C 129.289062 73.402344 129.277344 73.398438 129.269531 73.398438 C 129.265625 73.457031 129.261719 73.523438 129.253906 73.582031 C 129.261719 73.609375 129.269531 73.640625 129.277344 73.675781 C 129.289062 73.734375 129.316406 73.8125 129.351562 73.898438 C 129.351562 73.898438 129.351562 73.898438 129.351562 73.902344 C 129.351562 73.972656 129.347656 74.035156 129.335938 74.085938 C 129.351562 74.042969 129.359375 74 129.367188 73.957031 C 129.496094 74.300781 129.6875 74.777344 129.695312 75.042969 C 129.757812 75.160156 129.820312 75.273438 129.886719 75.382812 C 129.898438 75.402344 129.914062 75.425781 129.929688 75.449219 C 129.855469 75.410156 129.839844 75.46875 130.023438 75.664062 C 130.097656 75.742188 130.171875 75.816406 130.246094 75.890625 C 130.246094 75.890625 130.246094 75.890625 130.246094 75.894531 C 130.261719 75.921875 130.273438 75.953125 130.28125 75.980469 C 130.277344 75.957031 130.273438 75.9375 130.269531 75.917969 C 130.488281 76.144531 130.707031 76.367188 130.9375 76.582031 C 131.074219 76.667969 131.207031 76.765625 131.347656 76.851562 C 131.460938 76.917969 131.574219 76.980469 131.691406 77.039062 C 132.015625 77.050781 132.65625 77.335938 132.980469 77.4375 C 133.117188 77.445312 133.25 77.457031 133.382812 77.457031 C 133.539062 77.460938 133.699219 77.453125 133.855469 77.449219 C 133.847656 77.449219 133.839844 77.457031 133.835938 77.457031 L 133.847656 77.457031 C 133.859375 77.453125 133.871094 77.449219 133.882812 77.449219 C 133.886719 77.449219 133.886719 77.449219 133.886719 77.445312 C 133.980469 77.445312 134.078125 77.4375 134.171875 77.4375 C 134.46875 77.4375 134.515625 77.359375 134.410156 77.332031 C 134.59375 77.304688 134.777344 77.28125 134.917969 77.238281 C 134.980469 77.214844 135.125 77.152344 135.25 77.101562 Z M 135.25 77.101562 " fill-opacity="1" fill-rule="nonzero"/><path fill="#009fe3" d="M 81.570312 112.601562 C 81.601562 112.65625 81.628906 112.714844 81.664062 112.769531 C 81.601562 112.445312 81.160156 111.863281 81.570312 112.601562 Z M 81.570312 112.601562 " fill-opacity="1" fill-rule="nonzero"/><path fill="#009fe3" d="M 87.222656 114.84375 C 87.53125 114.664062 87.832031 114.46875 88.140625 114.308594 C 88.199219 114.253906 88.261719 114.203125 88.316406 114.148438 C 88.53125 113.949219 88.722656 113.726562 88.914062 113.511719 C 88.996094 113.378906 89.09375 113.253906 89.171875 113.121094 C 89.238281 113.007812 89.296875 112.890625 89.363281 112.777344 C 89.382812 112.527344 89.585938 112.097656 89.679688 111.832031 C 89.710938 111.863281 89.75 111.792969 89.757812 111.558594 C 89.761719 111.507812 89.761719 111.460938 89.761719 111.410156 C 89.777344 111.289062 89.800781 111.167969 89.835938 111.113281 C 89.804688 111.160156 89.78125 111.207031 89.761719 111.253906 C 89.761719 110.953125 89.761719 110.648438 89.761719 110.34375 C 89.71875 110.175781 89.6875 110.003906 89.640625 109.835938 C 89.613281 109.734375 89.582031 109.628906 89.546875 109.527344 C 89.578125 109.566406 89.613281 109.609375 89.65625 109.652344 C 89.613281 109.605469 89.574219 109.550781 89.535156 109.492188 C 89.511719 109.410156 89.484375 109.335938 89.464844 109.257812 C 89.398438 109.015625 89.316406 108.957031 89.304688 109.023438 C 89.238281 108.871094 89.171875 108.71875 89.097656 108.597656 C 89.058594 108.535156 88.9375 108.382812 88.855469 108.257812 C 88.605469 108 88.363281 107.746094 88.101562 107.5 L 88.085938 107.484375 C 88.050781 107.46875 88.011719 107.445312 87.960938 107.417969 C 87.695312 107.265625 87.417969 107.121094 87.148438 106.972656 C 87.015625 106.925781 86.878906 106.875 86.746094 106.832031 C 86.585938 106.789062 86.421875 106.75 86.261719 106.714844 C 85.863281 106.726562 85.429688 106.648438 85.039062 106.664062 C 85.003906 106.667969 84.972656 106.671875 84.9375 106.671875 C 84.917969 106.675781 84.894531 106.679688 84.875 106.6875 C 84.511719 106.765625 84.167969 106.898438 83.808594 106.992188 C 83.691406 107.058594 83.566406 107.117188 83.445312 107.1875 C 83.335938 107.25 83.226562 107.320312 83.121094 107.386719 C 82.902344 107.609375 82.585938 107.808594 82.394531 108.011719 C 82.34375 108.0625 82.292969 108.117188 82.246094 108.167969 C 82.191406 108.40625 81.878906 108.828125 81.664062 109.132812 C 81.671875 109.085938 81.671875 109.035156 81.664062 108.988281 C 81.664062 109.039062 81.632812 109.136719 81.59375 109.238281 C 81.554688 109.292969 81.523438 109.339844 81.5 109.382812 C 81.378906 109.601562 81.394531 109.664062 81.449219 109.628906 C 81.375 109.910156 81.335938 110.21875 81.261719 110.503906 C 81.253906 110.644531 81.246094 110.785156 81.246094 110.925781 C 81.246094 110.984375 81.257812 111.070312 81.269531 111.15625 C 81.257812 111.144531 81.246094 111.136719 81.238281 111.136719 C 81.234375 111.199219 81.230469 111.261719 81.226562 111.320312 C 81.230469 111.351562 81.238281 111.378906 81.246094 111.417969 C 81.261719 111.472656 81.289062 111.550781 81.320312 111.640625 C 81.320312 111.726562 81.3125 111.808594 81.296875 111.871094 C 81.316406 111.808594 81.332031 111.753906 81.339844 111.695312 C 81.464844 112.039062 81.660156 112.515625 81.664062 112.78125 C 81.726562 112.894531 81.789062 113.011719 81.855469 113.121094 C 81.867188 113.144531 81.878906 113.164062 81.898438 113.1875 C 81.820312 113.152344 81.8125 113.207031 81.996094 113.402344 C 82.070312 113.480469 82.144531 113.554688 82.214844 113.632812 C 82.238281 113.671875 82.253906 113.710938 82.257812 113.746094 C 82.253906 113.714844 82.25 113.6875 82.242188 113.65625 C 82.460938 113.882812 82.679688 114.101562 82.910156 114.320312 C 83.046875 114.402344 83.179688 114.503906 83.320312 114.585938 C 83.429688 114.652344 83.546875 114.710938 83.664062 114.777344 C 83.988281 114.789062 84.628906 115.070312 84.953125 115.171875 C 85.085938 115.183594 85.222656 115.191406 85.355469 115.195312 C 85.515625 115.195312 85.671875 115.1875 85.828125 115.183594 C 85.820312 115.1875 85.816406 115.191406 85.8125 115.195312 L 85.820312 115.195312 C 85.832031 115.1875 85.84375 115.1875 85.859375 115.183594 C 85.957031 115.183594 86.054688 115.175781 86.148438 115.175781 C 86.441406 115.175781 86.488281 115.097656 86.386719 115.070312 C 86.570312 115.042969 86.753906 115.015625 86.890625 114.976562 C 86.953125 114.953125 87.09375 114.890625 87.222656 114.84375 Z M 87.222656 114.84375 " fill-opacity="1" fill-rule="nonzero"/><path fill="#009fe3" d="M 148.898438 9.363281 C 128.492188 5.425781 106.59375 17.53125 97.726562 39.085938 C 88.21875 36.253906 78.050781 39.605469 72.453125 47.304688 C 67.589844 54 66.878906 63.019531 70.558594 70.703125 C 67.855469 71.113281 51.863281 73.785156 42.128906 88.410156 C 33.902344 100.765625 33.238281 116.996094 40.234375 130.78125 C 19.316406 139.21875 4.8125 158.351562 2.957031 180.105469 C 0.820312 205.183594 15.863281 229.492188 40.234375 239.546875 C 38.859375 242.445312 32.734375 256.175781 38.339844 271.800781 C 46.242188 293.839844 70 298.765625 71.191406 298.992188 C 67.390625 308.039062 69.710938 318.507812 76.875 324.917969 C 84.476562 331.722656 95.957031 332.550781 104.671875 326.816406 C 104.390625 329.554688 103.050781 344.964844 113.519531 355.273438 C 128.398438 369.921875 152.890625 360.234375 155.847656 359.066406 C 172.871094 352.332031 180.734375 337.808594 183.015625 333.148438 L 183.015625 259.589844 L 138.699219 259.589844 L 138.699219 285.144531 C 141.667969 286.246094 144.261719 288.296875 146.03125 291.183594 C 149.359375 296.601562 148.507812 303.480469 144.542969 308.273438 C 140.890625 312.695312 134.234375 314.523438 128.847656 312.539062 C 123.101562 310.414062 119.238281 305.28125 118.96875 299.152344 C 118.957031 299.011719 118.949219 298.867188 118.953125 298.722656 C 118.949219 298.539062 118.957031 298.359375 118.972656 298.183594 C 119.28125 292.449219 122.964844 287.003906 128.378906 285.03125 L 128.378906 254.421875 C 128.378906 251.625 130.75 249.257812 133.539062 249.257812 L 183.015625 249.257812 L 183.015625 215.203125 L 90.941406 215.203125 L 90.941406 250.382812 C 93.796875 251.507812 96.289062 253.515625 98.011719 256.320312 C 101.335938 261.738281 100.484375 268.617188 96.519531 273.414062 C 92.867188 277.828125 86.210938 279.660156 80.820312 277.675781 C 75.074219 275.550781 71.214844 270.417969 70.941406 264.289062 C 70.929688 264.144531 70.921875 264.003906 70.925781 263.859375 C 70.925781 263.675781 70.933594 263.496094 70.949219 263.320312 C 71.261719 257.496094 75.058594 251.960938 80.617188 250.070312 L 80.617188 210.035156 C 80.617188 207.238281 82.992188 204.871094 85.78125 204.871094 L 183.019531 204.871094 L 183.019531 167.578125 L 85.777344 167.578125 C 82.980469 167.578125 80.617188 165.207031 80.617188 162.414062 L 80.617188 124.660156 C 74.984375 122.496094 71.210938 117.410156 70.941406 111.355469 C 70.929688 111.214844 70.921875 111.070312 70.925781 110.925781 C 70.925781 110.742188 70.933594 110.5625 70.949219 110.386719 C 71.292969 103.949219 75.898438 97.863281 82.433594 96.667969 C 88.558594 95.542969 94.703125 98.003906 98.011719 103.386719 C 101.335938 108.804688 100.484375 115.683594 96.519531 120.480469 C 95.054688 122.257812 93.101562 123.609375 90.941406 124.472656 L 90.941406 157.246094 L 183.015625 157.246094 L 183.015625 122.652344 L 133.542969 122.652344 C 130.746094 122.652344 128.378906 120.277344 128.378906 117.484375 L 128.378906 86.820312 C 122.894531 84.597656 119.230469 79.578125 118.972656 73.617188 C 118.960938 73.476562 118.953125 73.332031 118.957031 73.1875 C 118.953125 73.003906 118.960938 72.824219 118.976562 72.648438 C 119.324219 66.207031 123.925781 60.128906 130.460938 58.925781 C 136.585938 57.804688 142.734375 60.261719 146.039062 65.648438 C 149.363281 71.066406 148.515625 77.945312 144.546875 82.742188 C 143.023438 84.585938 140.96875 85.980469 138.703125 86.832031 L 138.703125 112.320312 L 183.019531 112.320312 L 183.019531 40.980469 C 177.734375 24.703125 164.6875 12.410156 148.898438 9.363281 Z M 148.898438 9.363281 " fill-opacity="1" fill-rule="nonzero"/></svg>