<svg xmlns="http://www.w3.org/2000/svg" xmlns:xlink="http://www.w3.org/1999/xlink" width="500" zoomAndPan="magnify" viewBox="0 0 375 374.999991" height="500" preserveAspectRatio="xMidYMid meet" version="1.0"><defs><clipPath id="13f8ab9d89"><path d="M 41.25 67.4375 L 333.75 67.4375 L 333.75 317.9375 L 41.25 317.9375 Z M 41.25 67.4375 " clip-rule="nonzero"/></clipPath></defs><path fill="#009fe3" d="M 157.546875 155.078125 C 158.980469 156.988281 161.691406 157.375 163.601562 155.941406 C 165.511719 154.507812 165.898438 151.796875 164.464844 149.886719 C 158.503906 141.9375 151.738281 137.90625 144.351562 137.90625 C 132.078125 137.90625 123.320312 149.398438 122.953125 149.886719 C 121.519531 151.796875 121.902344 154.515625 123.8125 155.949219 C 124.59375 156.53125 125.503906 156.816406 126.410156 156.816406 C 127.71875 156.816406 129.015625 156.21875 129.863281 155.085938 C 129.929688 155.003906 136.4375 146.554688 144.351562 146.554688 C 144.359375 146.554688 144.375 146.554688 144.382812 146.554688 C 148.890625 146.570312 153.316406 149.4375 157.546875 155.078125 " fill-opacity="1" fill-rule="nonzero"/><path fill="#009fe3" d="M 219.308594 136.625 C 207.035156 136.625 198.277344 148.117188 197.910156 148.605469 C 196.476562 150.515625 196.859375 153.234375 198.769531 154.667969 C 199.550781 155.25 200.460938 155.53125 201.363281 155.53125 C 202.675781 155.53125 203.972656 154.9375 204.820312 153.808594 C 204.886719 153.71875 211.390625 145.273438 219.304688 145.273438 C 219.316406 145.273438 219.328125 145.273438 219.339844 145.273438 C 223.847656 145.289062 228.273438 148.15625 232.503906 153.796875 C 233.9375 155.707031 236.648438 156.09375 238.558594 154.660156 C 240.46875 153.226562 240.855469 150.515625 239.421875 148.605469 C 233.460938 140.65625 226.691406 136.625 219.308594 136.625 " fill-opacity="1" fill-rule="nonzero"/><path fill="#009fe3" d="M 215.304688 177.722656 C 213.324219 176.394531 210.640625 176.925781 209.308594 178.90625 C 209.28125 178.945312 206.574219 182.933594 201.988281 186.824219 C 196.148438 191.773438 190.121094 194.285156 184.070312 194.285156 C 178.023438 194.285156 171.992188 191.773438 166.15625 186.824219 C 161.59375 182.953125 158.890625 178.988281 158.835938 178.90625 C 157.507812 176.925781 154.828125 176.390625 152.84375 177.714844 C 150.855469 179.039062 150.320312 181.722656 151.644531 183.710938 C 152.167969 184.496094 164.679688 202.933594 184.070312 202.933594 C 203.460938 202.933594 215.976562 184.496094 216.5 183.710938 C 217.820312 181.726562 217.285156 179.050781 215.304688 177.722656 " fill-opacity="1" fill-rule="nonzero"/><g clip-path="url(#13f8ab9d89)"><path fill="#009fe3" d="M 317.398438 202.933594 C 308.265625 213.71875 293.285156 217.347656 287.855469 217.347656 C 285.46875 217.347656 283.53125 219.285156 283.53125 221.671875 C 283.53125 224.0625 285.46875 225.996094 287.855469 225.996094 C 288.292969 225.996094 288.746094 225.980469 289.203125 225.957031 C 288.65625 238.625 285.597656 248.652344 280.105469 255.792969 C 273.242188 264.71875 262.269531 269.242188 247.496094 269.242188 C 235.636719 269.242188 224.691406 264.828125 216.679688 256.816406 C 209.902344 250.039062 205.691406 240.992188 205.691406 233.207031 C 205.691406 230.816406 203.757812 228.878906 201.367188 228.878906 C 198.980469 228.878906 197.042969 230.816406 197.042969 233.207031 C 197.042969 243.351562 202.097656 254.464844 210.5625 262.929688 C 220.210938 272.578125 233.328125 277.890625 247.496094 277.890625 C 256.921875 277.890625 265.109375 276.265625 272 273.039062 L 272 309.601562 L 243.808594 309.601562 L 222.042969 282.398438 C 221.015625 281.113281 219.339844 280.523438 217.734375 280.875 C 217.5 280.925781 194.269531 285.867188 180.835938 275.0625 C 174.375 269.867188 171.097656 261.605469 171.097656 250.503906 C 171.097656 250.496094 171.097656 250.488281 171.097656 250.484375 C 171.097656 250.382812 171.089844 250.28125 171.082031 250.183594 C 171.078125 250.136719 171.078125 250.089844 171.074219 250.046875 C 171.066406 249.980469 171.054688 249.910156 171.042969 249.84375 C 170.988281 249.496094 170.898438 249.164062 170.769531 248.847656 C 170.765625 248.84375 170.765625 248.839844 170.761719 248.832031 C 170.730469 248.753906 170.691406 248.675781 170.652344 248.597656 C 170.625 248.546875 170.605469 248.496094 170.578125 248.449219 C 170.554688 248.40625 170.527344 248.363281 170.503906 248.324219 C 170.28125 247.9375 169.992188 247.585938 169.648438 247.277344 C 169.601562 247.238281 169.5625 247.199219 169.515625 247.160156 C 169.476562 247.128906 169.433594 247.101562 169.394531 247.070312 C 169.320312 247.011719 169.246094 246.953125 169.164062 246.902344 C 169.160156 246.898438 169.152344 246.890625 169.148438 246.890625 C 169.113281 246.867188 169.078125 246.847656 169.042969 246.828125 C 168.960938 246.777344 168.878906 246.726562 168.792969 246.679688 C 168.742188 246.652344 168.695312 246.632812 168.644531 246.609375 C 168.566406 246.570312 168.488281 246.535156 168.410156 246.5 C 168.347656 246.476562 168.289062 246.457031 168.226562 246.433594 C 168.15625 246.410156 168.085938 246.382812 168.011719 246.359375 C 167.941406 246.339844 167.867188 246.324219 167.796875 246.304688 C 167.730469 246.289062 167.667969 246.273438 167.601562 246.261719 C 167.519531 246.242188 167.433594 246.234375 167.351562 246.222656 C 167.296875 246.214844 167.238281 246.203125 167.183594 246.199219 C 167.085938 246.191406 166.988281 246.1875 166.890625 246.183594 C 166.851562 246.183594 166.8125 246.179688 166.773438 246.179688 C 166.765625 246.179688 166.757812 246.179688 166.753906 246.179688 C 166.65625 246.179688 166.5625 246.1875 166.46875 246.195312 C 166.417969 246.195312 166.367188 246.199219 166.316406 246.203125 C 166.257812 246.210938 166.199219 246.21875 166.144531 246.230469 C 165.683594 246.296875 165.25 246.433594 164.851562 246.632812 C 164.808594 246.65625 164.761719 246.671875 164.71875 246.695312 C 164.671875 246.722656 164.625 246.753906 164.578125 246.78125 C 164.503906 246.824219 164.429688 246.867188 164.355469 246.917969 C 164.351562 246.917969 164.347656 246.921875 164.34375 246.925781 C 164.058594 247.117188 163.800781 247.347656 163.566406 247.609375 C 163.519531 247.660156 163.472656 247.707031 163.429688 247.761719 C 163.402344 247.796875 163.375 247.835938 163.347656 247.871094 C 163.285156 247.949219 163.226562 248.027344 163.171875 248.113281 C 163.167969 248.117188 163.164062 248.121094 163.160156 248.128906 C 157.429688 256.847656 149.390625 261.699219 139.261719 262.542969 C 130.539062 263.269531 121.953125 260.761719 116.828125 258.175781 C 110.09375 254.773438 104.871094 248.707031 102.121094 241.09375 C 99.816406 234.710938 99.582031 227.78125 101.527344 223.441406 C 102.503906 221.261719 101.53125 218.703125 99.351562 217.726562 C 97.171875 216.75 94.613281 217.722656 93.636719 219.90625 C 92.457031 222.539062 91.777344 225.59375 91.601562 228.875 C 81.597656 228.804688 71.285156 223.808594 63.28125 215.136719 C 54.726562 205.867188 50.015625 193.855469 50.015625 181.3125 C 50.015625 171.542969 51.65625 162.96875 54.898438 155.824219 C 57.445312 150.214844 60.988281 145.449219 65.433594 141.664062 C 69.21875 138.4375 73.046875 136.453125 75.964844 135.269531 C 76.011719 137.617188 77.921875 139.5 80.277344 139.503906 C 80.28125 139.503906 80.28125 139.503906 80.285156 139.503906 C 82.664062 139.503906 84.601562 137.574219 84.609375 135.191406 C 84.609375 135.125 84.667969 128.300781 87.382812 119.609375 C 90.953125 108.191406 97.199219 99.078125 105.945312 92.515625 C 114.585938 86.035156 125.15625 83.164062 137.371094 83.984375 C 142.808594 84.347656 147.394531 85.402344 150.296875 86.226562 C 147.121094 89.90625 145.695312 92.714844 145.605469 92.890625 C 144.539062 95.027344 145.402344 97.632812 147.535156 98.703125 C 148.160156 99.011719 148.824219 99.160156 149.472656 99.160156 C 151.054688 99.160156 152.578125 98.289062 153.332031 96.777344 C 153.359375 96.726562 156.082031 91.511719 162.613281 86.394531 C 171.347656 79.554688 182.445312 76.085938 195.601562 76.085938 C 208.761719 76.085938 219.859375 79.554688 228.59375 86.394531 C 232.855469 89.734375 235.496094 93.117188 236.820312 95.070312 C 230.417969 98.917969 226.910156 103.53125 226.738281 103.761719 C 225.304688 105.671875 225.691406 108.382812 227.601562 109.816406 C 229.515625 111.246094 232.226562 110.859375 233.65625 108.949219 C 233.695312 108.902344 237.507812 103.984375 244.242188 100.921875 C 253.390625 96.761719 263.4375 97.898438 274.101562 104.296875 C 281.652344 108.828125 286.515625 116.160156 288.554688 126.09375 C 289.445312 130.429688 289.585938 134.371094 289.535156 137.007812 C 287.117188 136.757812 284.632812 136.625 282.089844 136.625 C 279.703125 136.625 277.765625 138.5625 277.765625 140.949219 C 277.765625 143.339844 279.703125 145.273438 282.089844 145.273438 C 293.046875 145.273438 302.644531 147.945312 309.855469 152.996094 C 317.535156 158.375 322.277344 166.203125 323.953125 176.257812 C 325.703125 186.761719 323.496094 195.734375 317.398438 202.933594 Z M 332.484375 174.835938 C 330.441406 162.582031 324.332031 152.578125 314.820312 145.914062 C 310.007812 142.542969 304.378906 140.054688 298.144531 138.503906 C 298.277344 135.453125 298.230469 130.382812 297.085938 124.644531 C 294.613281 112.277344 288.207031 102.675781 278.550781 96.882812 C 264.589844 88.503906 252.980469 88.898438 244.789062 91.46875 C 243.386719 89.191406 240.097656 84.519531 234.339844 79.914062 C 227.226562 74.222656 214.726562 67.4375 195.601562 67.4375 C 176.910156 67.4375 164.554688 73.917969 157.359375 79.527344 C 157.195312 79.433594 157.027344 79.347656 156.847656 79.277344 C 156.527344 79.148438 148.890625 76.136719 138.25 75.375 C 123.996094 74.355469 111.027344 77.890625 100.753906 85.597656 C 90.585938 93.222656 83.078125 104.199219 79.035156 117.335938 C 78.085938 120.417969 77.429688 123.28125 76.976562 125.777344 C 73.445312 126.785156 66.816406 129.25 60.21875 134.746094 C 54.699219 139.34375 50.308594 145.125 47.167969 151.933594 C 43.316406 160.277344 41.363281 170.160156 41.363281 181.3125 C 41.363281 196.035156 46.890625 210.132812 56.925781 221.003906 C 66.621094 231.503906 79.339844 237.53125 91.816406 237.53125 C 91.949219 237.53125 92.078125 237.519531 92.207031 237.511719 C 92.613281 239.675781 93.207031 241.867188 93.988281 244.03125 C 97.488281 253.730469 104.214844 261.492188 112.929688 265.894531 C 115.628906 267.257812 124.648438 271.324219 136.070312 271.324219 C 137.34375 271.324219 138.648438 271.273438 139.980469 271.160156 C 149.0625 270.40625 157.011719 266.96875 163.425781 261.105469 C 165.15625 269.851562 169.175781 276.796875 175.445312 281.828125 C 189.230469 292.886719 209.589844 290.960938 216.898438 289.8125 L 238.351562 316.628906 C 239.171875 317.652344 240.417969 318.253906 241.730469 318.253906 L 276.324219 318.253906 C 278.714844 318.253906 280.648438 316.316406 280.648438 313.925781 L 280.648438 267.800781 C 280.648438 267.738281 280.644531 267.675781 280.640625 267.613281 C 282.96875 265.699219 285.078125 263.515625 286.960938 261.066406 C 293.839844 252.121094 297.519531 239.808594 297.910156 224.441406 C 300.238281 223.804688 302.628906 222.988281 304.949219 222.019531 C 310.324219 219.777344 317.992188 215.617188 324 208.527344 C 327.640625 204.230469 330.234375 199.371094 331.714844 194.085938 C 333.367188 188.171875 333.625 181.695312 332.484375 174.835938 " fill-opacity="1" fill-rule="nonzero"/></g></svg>